<svg width="340" height="17" viewBox="0 0 340 17" fill="none" xmlns="http://www.w3.org/2000/svg">
<g opacity="0.35">
<path opacity="0.35" fill-rule="evenodd" clip-rule="evenodd" d="M317.667 3.3335C316.748 3.3335 316 4.08117 316 5.00017V11.0002C316 11.9192 316.748 12.6668 317.667 12.6668H334.333C335.252 12.6668 336 11.9192 336 11.0002V5.00017C336 4.08117 335.252 3.3335 334.333 3.3335H317.667ZM317.667 2.3335H334.333C335.806 2.3335 337 3.52741 337 5.00017V11.0002C337 12.4729 335.806 13.6668 334.333 13.6668H317.667C316.194 13.6668 315 12.4729 315 11.0002V5.00017C315 3.52741 316.194 2.3335 317.667 2.3335Z" fill="white"/>
</g>
<path d="M338 6V10C338.394 9.8343 338.73 9.55614 338.966 9.20038C339.202 8.84461 339.328 8.42705 339.328 8C339.328 7.57295 339.202 7.15539 338.966 6.79962C338.73 6.44386 338.394 6.1657 338 6" fill="white"/>
<path d="M318.333 4.33301H333.666C333.841 4.33288 334.015 4.36729 334.177 4.43428C334.339 4.50128 334.486 4.59954 334.61 4.72343C334.733 4.84733 334.832 4.99445 334.899 5.15635C334.966 5.31826 335 5.49179 335 5.66701V10.334C335 10.6875 334.86 11.0266 334.61 11.2766C334.36 11.5266 334.021 11.667 333.667 11.667H318.333C318.158 11.667 317.984 11.6325 317.823 11.5654C317.661 11.4984 317.514 11.4001 317.39 11.2762C317.266 11.1523 317.168 11.0053 317.101 10.8434C317.034 10.6816 317 10.5081 317 10.333V5.66601C317 5.31247 317.14 4.97342 317.39 4.72343C317.64 4.47345 317.979 4.33301 318.333 4.33301V4.33301Z" fill="white"/>
<path d="M302.33 4.60811C304.545 4.60808 306.677 5.4594 308.283 6.98611C308.34 7.04308 308.418 7.07504 308.499 7.07504C308.58 7.07504 308.658 7.04308 308.716 6.98611L309.872 5.81911C309.901 5.78894 309.925 5.75319 309.941 5.71389C309.957 5.67459 309.965 5.63252 309.965 5.59011C309.964 5.54754 309.954 5.50556 309.937 5.46659C309.92 5.42763 309.895 5.39245 309.865 5.36311C307.836 3.41949 305.134 2.33447 302.325 2.33447C299.515 2.33447 296.814 3.41949 294.785 5.36311C294.754 5.39245 294.729 5.42763 294.712 5.46659C294.695 5.50556 294.685 5.54754 294.685 5.59011C294.684 5.63252 294.692 5.67459 294.708 5.71389C294.724 5.75319 294.748 5.78894 294.778 5.81911L295.934 6.98611C295.991 7.04308 296.069 7.07504 296.15 7.07504C296.231 7.07504 296.309 7.04308 296.367 6.98611C297.973 5.45925 300.104 4.60793 302.321 4.60811H302.33ZM302.33 8.40811C303.547 8.40812 304.721 8.86078 305.624 9.67811C305.682 9.73381 305.76 9.76437 305.841 9.76324C305.922 9.76212 305.999 9.72942 306.057 9.67211L307.212 8.50511C307.242 8.47491 307.266 8.43902 307.282 8.39954C307.298 8.36005 307.306 8.31776 307.306 8.27511C307.305 8.2322 307.296 8.18984 307.279 8.15051C307.262 8.11118 307.237 8.07569 307.206 8.04611C305.881 6.81386 304.139 6.12885 302.33 6.12885C300.52 6.12885 298.778 6.81386 297.454 8.04611C297.423 8.07569 297.398 8.11118 297.38 8.15051C297.363 8.18984 297.354 8.2322 297.354 8.27511C297.353 8.31776 297.361 8.36005 297.378 8.39954C297.394 8.43902 297.417 8.47491 297.448 8.50511L298.602 9.67211C298.659 9.72942 298.736 9.76212 298.817 9.76324C298.898 9.76437 298.976 9.73381 299.035 9.67811C299.936 8.86124 301.11 8.40862 302.327 8.40811H302.33ZM304.549 11.1921C304.579 11.1621 304.603 11.1261 304.619 11.0863C304.636 11.0466 304.644 11.004 304.643 10.9611C304.642 10.9186 304.633 10.8767 304.616 10.8379C304.599 10.799 304.574 10.7641 304.543 10.7351C303.925 10.2128 303.142 9.92619 302.333 9.92619C301.524 9.92619 300.741 10.2128 300.124 10.7351C300.092 10.7641 300.068 10.799 300.05 10.8379C300.033 10.8767 300.024 10.9186 300.024 10.9611C300.023 11.004 300.031 11.0466 300.047 11.0863C300.063 11.1261 300.087 11.1621 300.118 11.1921L302.118 13.2081C302.147 13.2376 302.181 13.261 302.219 13.277C302.257 13.2929 302.298 13.3011 302.34 13.3011C302.381 13.3011 302.422 13.2928 302.46 13.2769C302.498 13.2609 302.533 13.2375 302.562 13.2081L304.549 11.1921Z" fill="white"/>
<path d="M273.667 9.33299H274.667C274.932 9.33299 275.187 9.43835 275.374 9.62589C275.562 9.81342 275.667 10.0678 275.667 10.333V12.333C275.667 12.5982 275.562 12.8526 275.374 13.0401C275.187 13.2276 274.932 13.333 274.667 13.333H273.667C273.402 13.333 273.147 13.2276 272.96 13.0401C272.772 12.8526 272.667 12.5982 272.667 12.333V10.333C272.667 10.0678 272.772 9.81342 272.96 9.62589C273.147 9.43835 273.402 9.33299 273.667 9.33299ZM278.334 7.33299H279.334C279.599 7.33299 279.854 7.43835 280.041 7.62589C280.229 7.81342 280.334 8.06778 280.334 8.33299V12.333C280.334 12.5982 280.229 12.8526 280.041 13.0401C279.854 13.2276 279.599 13.333 279.334 13.333H278.334C278.069 13.333 277.814 13.2276 277.627 13.0401C277.439 12.8526 277.334 12.5982 277.334 12.333V8.33299C277.334 8.06795 277.439 7.81375 277.627 7.62624C277.814 7.43873 278.068 7.33326 278.333 7.33299H278.334ZM283 4.99999H284C284.265 4.99999 284.52 5.10535 284.707 5.29288C284.895 5.48042 285 5.73478 285 5.99999V12.333C285 12.5982 284.895 12.8526 284.707 13.0401C284.52 13.2276 284.265 13.333 284 13.333H283C282.735 13.333 282.48 13.2276 282.293 13.0401C282.105 12.8526 282 12.5982 282 12.333V5.99999C282 5.73478 282.105 5.48042 282.293 5.29288C282.48 5.10535 282.735 4.99999 283 4.99999ZM287.667 2.66699H288.667C288.932 2.66699 289.187 2.77235 289.374 2.95988C289.562 3.14742 289.667 3.40178 289.667 3.66699V12.334C289.667 12.5992 289.562 12.8536 289.374 13.0411C289.187 13.2286 288.932 13.334 288.667 13.334H287.667C287.402 13.334 287.147 13.2286 286.96 13.0411C286.772 12.8536 286.667 12.5992 286.667 12.334V3.66699C286.667 3.40178 286.772 3.14742 286.96 2.95988C287.147 2.77235 287.402 2.66699 287.667 2.66699Z" fill="white"/>
<path d="M15.4551 11.9404H15.585C16.3141 11.9404 16.9066 11.8379 17.3623 11.6328C17.818 11.4277 18.1689 11.152 18.415 10.8057C18.6611 10.4593 18.8298 10.0697 18.9209 9.63672C19.012 9.19922 19.0576 8.75033 19.0576 8.29004V6.76562C19.0576 6.31445 19.0052 5.91341 18.9004 5.5625C18.8001 5.21159 18.6589 4.91764 18.4766 4.68066C18.2988 4.44368 18.096 4.26367 17.8682 4.14062C17.6403 4.01758 17.3988 3.95605 17.1436 3.95605C16.8519 3.95605 16.5898 4.0153 16.3574 4.13379C16.1296 4.24772 15.9359 4.40951 15.7764 4.61914C15.6214 4.82878 15.5029 5.07487 15.4209 5.35742C15.3389 5.63997 15.2979 5.94759 15.2979 6.28027C15.2979 6.5765 15.3343 6.86361 15.4072 7.1416C15.4801 7.4196 15.5918 7.67025 15.7422 7.89355C15.8926 8.11686 16.0794 8.2946 16.3027 8.42676C16.5306 8.55436 16.7972 8.61816 17.1025 8.61816C17.3851 8.61816 17.6494 8.56348 17.8955 8.4541C18.1462 8.34017 18.3672 8.1875 18.5586 7.99609C18.7546 7.80013 18.9095 7.5791 19.0234 7.33301C19.1419 7.08691 19.2103 6.82943 19.2285 6.56055H19.8301C19.8301 6.9388 19.7549 7.3125 19.6045 7.68164C19.4587 8.04622 19.2536 8.37891 18.9893 8.67969C18.7249 8.98047 18.415 9.22201 18.0596 9.4043C17.7041 9.58203 17.3167 9.6709 16.8975 9.6709C16.4053 9.6709 15.9792 9.5752 15.6191 9.38379C15.2591 9.19238 14.9629 8.93717 14.7305 8.61816C14.5026 8.29915 14.3317 7.94368 14.2178 7.55176C14.1084 7.15527 14.0537 6.75423 14.0537 6.34863C14.0537 5.87467 14.1198 5.43034 14.252 5.01562C14.3841 4.60091 14.5801 4.23633 14.8398 3.92188C15.0996 3.60286 15.4209 3.35449 15.8037 3.17676C16.1911 2.99902 16.6377 2.91016 17.1436 2.91016C17.7132 2.91016 18.1986 3.02409 18.5996 3.25195C19.0007 3.47982 19.3265 3.78516 19.5771 4.16797C19.8324 4.55078 20.0192 4.98145 20.1377 5.45996C20.2562 5.93848 20.3154 6.43066 20.3154 6.93652V7.39453C20.3154 7.90951 20.2812 8.43359 20.2129 8.9668C20.1491 9.49544 20.0238 10.0013 19.8369 10.4844C19.6546 10.9674 19.388 11.4004 19.0371 11.7832C18.6862 12.1615 18.2282 12.4622 17.6631 12.6855C17.1025 12.9043 16.4098 13.0137 15.585 13.0137H15.4551V11.9404ZM22.1543 12.3301C22.1543 12.1159 22.2204 11.9359 22.3525 11.79C22.4893 11.6396 22.6852 11.5645 22.9404 11.5645C23.1956 11.5645 23.3893 11.6396 23.5215 11.79C23.6582 11.9359 23.7266 12.1159 23.7266 12.3301C23.7266 12.5397 23.6582 12.7174 23.5215 12.8633C23.3893 13.0091 23.1956 13.082 22.9404 13.082C22.6852 13.082 22.4893 13.0091 22.3525 12.8633C22.2204 12.7174 22.1543 12.5397 22.1543 12.3301ZM22.1611 6.29395C22.1611 6.07975 22.2272 5.89974 22.3594 5.75391C22.4961 5.60352 22.6921 5.52832 22.9473 5.52832C23.2025 5.52832 23.3962 5.60352 23.5283 5.75391C23.665 5.89974 23.7334 6.07975 23.7334 6.29395C23.7334 6.50358 23.665 6.68132 23.5283 6.82715C23.3962 6.97298 23.2025 7.0459 22.9473 7.0459C22.6921 7.0459 22.4961 6.97298 22.3594 6.82715C22.2272 6.68132 22.1611 6.50358 22.1611 6.29395ZM32.1895 9.65039V10.6895H24.998V9.94434L29.4551 3.04688H30.4873L29.3799 5.04297L26.4336 9.65039H32.1895ZM30.8018 3.04688V13H29.5371V3.04688H30.8018ZM37.4941 2.99219V13H36.2295V4.57129L33.6797 5.50098V4.35938L37.2959 2.99219H37.4941Z" fill="white"/>
</svg>
